# xmcd CD database file
#
# Track frame offsets:
#	150
#	18237
#	43737
#	60075
#	80676
#	96016
#	120700
#	152050
#	170184
#	200589
#	234871
#
# Disc length: 3363 seconds
#
# Revision: 1
# Processed by: cddbd v1.5.1PL0 Copyright (c) Steve Scherf et al.
# Submitted via: CDex 1.51
#
DISCID=850d210b
DTITLE=Eva Emingerova - Sophisticated Lady
DYEAR=2004
DGENRE=Jazz
TTITLE0=my heart belongs to daddy
TTITLE1=nature boy
TTITLE2=sophisticated lady
TTITLE3=old devil moon
TTITLE4=one note samba
TTITLE5=it ain't necessarity so
TTITLE6=summertime
TTITLE7=so danco samba
TTITLE8=dindi
TTITLE9=the girl from ipanema
TTITLE10=moonlight in vermont
EXTD=YEAR: 2004
EXTT0=
EXTT1=
EXTT2=
EXTT3=
EXTT4=
EXTT5=
EXTT6=
EXTT7=
EXTT8=
EXTT9=
EXTT10=
PLAYORDER=
